Coordinates
version=1
nRows=5
nColumns=46
inDegrees=yes

Units are S.I. units (second, meters, Newtons, ...)
Angles are in degrees.

endheader
time	pelvis_tilt	pelvis_list	pelvis_rotation	pelvis_tx	pelvis_ty	pelvis_tz	bb_angle	bb_tx	bb_ty	bb_tz	hip_flexion_r	hip_adduction_r	hip_rotation_r	knee_angle_r	knee_angle_r_beta	ankle_angle_r	subtalar_angle_r	mtp_angle_r	crank_angle_r	hip_flexion_l	hip_adduction_l	hip_rotation_l	knee_angle_l	knee_angle_l_beta	ankle_angle_l	subtalar_angle_l	mtp_angle_l	crank_angle_l	lumbar_extension	lumbar_bending	lumbar_rotation	arm_flex_r	arm_add_r	arm_rot_r	elbow_flex_r	pro_sup_r	wrist_flex_r	wrist_dev_r	arm_flex_l	arm_add_l	arm_rot_l	elbow_flex_l	pro_sup_l	wrist_flex_l	wrist_dev_l
      7.50000000	    -37.91744931	      2.08195821	     12.79026307	      0.42345371	      1.17093365	     -0.27729422	      0.00000000	      0.50000000	      0.00000000	      0.25000000	     36.39904714	    -12.80360126	    -12.26897006	     30.12260891	      0.52573870	    -17.04478320	     -0.19986660	      0.00000000	      0.00000000	     89.98059575	      4.19908558	      2.01794871	     94.48492440	      1.64907302	     -0.30179978	     -3.16817380	      0.00000000	      0.00000000	    -61.28404455	      4.81353613	    -20.59597893	     38.65718525	     -6.71231771	     20.30006719	    102.57209854	     48.76260225	      0.00000000	      0.00000000	     21.59187363	    -45.17633814	      2.99337764	    119.99854949	     54.50121421	      0.00000000	      0.00000000
      7.50500000	    -37.98176438	      1.90081665	     12.55936877	      0.42329294	      1.17270148	     -0.27824998	      0.00000000	      0.50000000	      0.00000000	      0.25000000	     37.58769264	    -12.69636322	    -11.68167927	     32.83617484	      0.57309936	    -17.47405317	     -2.49942955	      0.00000000	      0.00000000	     88.97160859	      4.22264733	      2.15864231	     92.47714164	      1.61403060	      1.35524639	     -3.06094883	      0.00000000	      0.00000000	    -61.38210420	      4.89477045	    -20.52289884	     39.23330204	     -6.96443015	     20.59290701	    102.29743443	     48.74682620	      0.00000000	      0.00000000	     21.43808338	    -45.07356505	      2.58838789	    120.14565246	     54.47427396	      0.00000000	      0.00000000
      7.51000000	    -38.07238727	      1.77621334	     12.09358857	      0.42301157	      1.17439905	     -0.27851758	      0.00000000	      0.50000000	      0.00000000	      0.25000000	     38.97198406	    -12.39086880	    -10.67598449	     35.59860968	      0.62131295	    -18.13335807	     -4.96479136	      0.00000000	      0.00000000	     87.84818718	      3.93222881	      2.19822328	     90.26991672	      1.57550726	      2.89533311	     -2.92945741	      0.00000000	      0.00000000	    -61.37288406	      4.94919840	    -23.09181807	     41.54498378	     -5.29794659	     24.10287336	     99.21611381	     48.72230792	      0.00000000	      0.00000000	     15.32984661	    -46.20553854	     -4.37099943	    122.50746200	     54.09092998	      0.00000000	      0.00000000
      7.51500000	    -37.90352543	      1.57939508	     11.82991920	      0.42324072	      1.17622734	     -0.27960466	      0.00000000	      0.50000000	      0.00000000	      0.25000000	     40.02434824	    -12.26224407	    -10.20477213	     38.46260035	      0.67129901	    -18.28084835	     -6.43428458	      0.00000000	      0.00000000	     86.33251248	      3.92882780	      2.36797744	     87.89486609	      1.53405481	      4.25633039	     -3.20227754	      0.00000000	      0.00000000	    -61.63826106	      5.05842259	    -22.83782561	     42.10424206	     -5.56386277	     24.22010666	     99.03908008	     48.69899745	      0.00000000	      0.00000000	     15.39134604	    -46.07991005	     -4.51733061	    122.45465762	     54.03953798	      0.00000000	      0.00000000
      7.52000000	    -37.73509725	      1.29142290	     11.47117940	      0.42350472	      1.17788465	     -0.28078625	      0.00000000	      0.50000000	      0.00000000	      0.25000000	     41.12630290	    -12.01398176	     -9.73712468	     41.31846825	      0.72114331	    -18.53254322	     -7.71870516	      0.00000000	      0.00000000	     84.78340199	      3.79201707	      2.57799916	     85.44383434	      1.49127623	      5.36937240	     -3.49786200	      0.00000000	      0.00000000	    -61.84293490	      5.14782640	    -22.41415001	     42.64298775	     -5.87866895	     24.35863967	     98.84459889	     48.67398380	      0.00000000	      0.00000000	     15.42270006	    -46.00152727	     -4.79586873	    122.36678430	     53.96951651	      0.00000000	      0.00000000
